# xmcd
#
# Track frame offsets: 
#        150
#        14047
#        28113
#        38058
#        50437
#        64595
#        77992
#        90196
#        102005
#        113579
#        124233
#        136735
#        151202
#        161896
#        174676
#        185678
#        197856
#        210566
#        222344
#        234043
#        243851
#        258335
#        268517
#        278092
#        290692
#
# Disc length: 3988 seconds
#
# Revision: 0
# Processed by: cddbd v1.5.2PL0 Copyright (c) Steve Scherf et al.
# Submitted via: ExactAudioCopyFreeDBPlugin 1.0
#
DISCID=5e0f9219
DTITLE=Various Artist - The Best Of Chess Records And Associated Labe
DTITLE=ls
DYEAR=2013
DGENRE=Blues
TTITLE0=Gene Ammons - Bless You
TTITLE1=Muddy Waters - Too Poor
TTITLE2=Dale Hawkins - Susie Q
TTITLE3=Jimmy Rogers - Goin' Away Baby
TTITLE4=Ike Turner and His Kings Of Rhythm - Heartbroken And Worried
TTITLE5=Howlin' Wolf - Moanin' At Midnight
TTITLE6=Memphis Slim - Walking Alone
TTITLE7=Rufus Thomas Jr. - No More Doggin' Around
TTITLE8=John Lee Hooker - Walkin' The Boogie
TTITLE9=Washboard Sam - Bright Eyes
TTITLE10=Big Bill Broonzy - Little City Woman
TTITLE11=The Moonglows - Sincerely
TTITLE12=Chuck Berry - Maybelline
TTITLE13=Bobby Charles - Later Alligator
TTITLE14=Billy Stewart - Billy's Blues
TTITLE15=Little Walter - My Babe
TTITLE16=Billy 'The Kid' Emerson - Give Me A Little Love
TTITLE17=Gloria May - What 'cha Doing In The Woods
TTITLE18=Larry Williams - My Baby's Got Soul
TTITLE19=The Falcons - Just For Love
TTITLE20=Otis Rush - So Many Roads, So Many Trains
TTITLE21=Elmore James - I Can't Hold Out
TTITLE22=Buddy Guy - Slop Around
TTITLE23=Ella and Harvey - If I Can't Have You
TTITLE24=Jerry Mason - You Are Lonely
EXTD=
EXTT0=
EXTT1=
EXTT2=
EXTT3=
EXTT4=
EXTT5=
EXTT6=
EXTT7=
EXTT8=
EXTT9=
EXTT10=
EXTT11=
EXTT12=
EXTT13=
EXTT14=
EXTT15=
EXTT16=
EXTT17=
EXTT18=
EXTT19=
EXTT20=
EXTT21=
EXTT22=
EXTT23=
EXTT24=
PLAYORDER=
